<mxfile host="app.diagrams.net" modified="2023-09-29T16:28:15.870Z" agent="Mozilla/5.0 (X11; Linux x86_64; rv:103.0) Gecko/20100101 Firefox/103.0" version="21.8.0" etag="mIa2a1drCs9C-52Oo5k0" type="github">
  <diagram name="PÃ¡gina-1" id="_oDHlMAUnnKFJ1dQuTjk">
    <mxGraphModel>
      <root>
        <mxCell id="0" />
        <mxCell id="1" parent="0" />
      </root>
    </mxGraphModel>
  </diagram>
</mxfile>
